<svg width="194" height="232" viewBox="0 0 194 232" fill="none" xmlns="http://www.w3.org/2000/svg">
<g clip-path="url(#clip0_1_25)">
<mask id="mask0_1_25" style="mask-type:luminance" maskUnits="userSpaceOnUse" x="-143" y="-12" width="493" height="244">
<path d="M350 -12H-143V232H350V-12Z" fill="white"/>
</mask>
<g mask="url(#mask0_1_25)">
<path d="M545 -428H-1183V689H545V-428Z" fill="white"/>
<path d="M545 -428H-319V581H545V-428Z" fill="#1A5623"/>
<path d="M56.88 30.92C63.8 30.92 67.16 34.6 67.16 40.64V53H63.04L63.72 46H63.12C62 51.2 59.04 53.56 54.88 53.56C49.32 53.56 47 50.84 47 47.08C47 42.16 50.96 39.8 58.04 39.8H63.08C62.68 36.76 60.48 35.2 56.88 35.2C54 35.2 52.48 36.52 51 38.72L47.56 36.32C49.76 33.12 52.44 30.92 56.88 30.92ZM55.4 49.28C59.88 49.28 62.16 46.64 62.84 42.88H58.04C53.44 42.88 51.24 43.92 51.24 46.36C51.24 48.04 52.52 49.28 55.4 49.28Z" fill="#FFF1BE"/>
<path d="M84.26 30.88C89.82 30.88 94.02 35.96 94.02 42.52C94.02 48.52 89.82 53.6 84.26 53.6C79.78 53.6 76.7 51.32 75.74 46.12H75.02L75.42 53H71.14V21H75.42V31.24L75.02 38.04H75.86C76.94 33.48 79.94 30.88 84.26 30.88ZM82.78 49.32C86.78 49.32 89.82 46.48 89.82 42.36C89.82 38.16 86.78 35.32 82.78 35.32C79.02 35.32 76.02 38.32 76.02 42.4C76.02 46.08 79.14 49.32 82.78 49.32Z" fill="#FFF1BE"/>
<path d="M118.78 48.12C116.86 51.6 113.5 53.6 108.82 53.6C102.54 53.6 98.02 48.52 98.02 42.2C98.02 35.96 102.54 30.88 108.82 30.88C113.62 30.88 117.18 33.08 119.1 36.88L115.78 39.2C113.98 36.32 111.9 35.16 109.1 35.16C105.18 35.16 102.34 38 102.34 42.2C102.34 46.64 105.18 49.32 109.1 49.32C111.78 49.32 113.94 48.12 115.42 45.8L118.78 48.12Z" fill="#FFF1BE"/>
<path d="M47 95.44L50.92 93.4C52.2 96.04 54.04 97.36 56.92 97.36C60.36 97.36 62 96.36 62 94.88C62 93.44 61.08 92.64 57.44 91.88L56.08 91.6C50.24 90.4 48.04 88.28 48.04 84.8C48.04 81.76 50.68 78.88 56.44 78.88C61.4 78.88 64.04 81.24 65.72 84.8L62.16 86.72C60.68 84 58.92 83 56.44 83C53.2 83 52.2 84.08 52.2 85.2C52.2 86.48 53 87.2 56.08 87.96L57.44 88.28C64.16 89.68 66 91.8 66 95.08C66 98.12 63.16 101.48 56.92 101.48C51.92 101.48 49.12 99.44 47 95.44Z" fill="#FFF1BE"/>
<path d="M72.84 76.56C71.32 76.56 70.2 75.4 70.2 73.96C70.2 72.52 71.32 71.4 72.84 71.4C74.2 71.4 75.36 72.52 75.36 73.96C75.36 75.4 74.2 76.56 72.84 76.56ZM70.6799 101V79.24H74.88V101H70.6799Z" fill="#FFF1BE"/>
<path d="M93.67 78.88C99.23 78.88 103.43 83.96 103.43 90.52C103.43 96.52 99.23 101.6 93.67 101.6C89.19 101.6 86.11 99.32 85.15 94.12H84.43L84.83 101H80.55V69H84.83V79.24L84.43 86.04H85.2701C86.3501 81.48 89.35 78.88 93.67 78.88ZM92.19 97.32C96.19 97.32 99.23 94.48 99.23 90.36C99.23 86.16 96.19 83.32 92.19 83.32C88.43 83.32 85.43 86.32 85.43 90.4C85.43 94.08 88.55 97.32 92.19 97.32Z" fill="#FFF1BE"/>
<path d="M111.75 91.64C112.27 95.16 114.87 97.44 118.51 97.44C121.23 97.44 123.55 96.32 125.07 94.04L128.07 96.12C126.03 99.76 122.47 101.6 118.51 101.6C112.27 101.6 107.43 96.52 107.43 90.2C107.43 84 112.27 78.88 118.51 78.88C125.23 78.88 129.55 84.36 129.23 91.64H111.75ZM118.51 83C114.95 83 112.39 85.36 111.79 88.64H125.11C124.55 85.12 121.91 83 118.51 83Z" fill="#FFF1BE"/>
<path d="M137.17 86.04C138.13 80.84 140.85 79.24 145.53 79.24V83.84C140.69 83.08 137.49 85.56 137.49 91.08V101H133.21V79.24H137.49L136.41 86.04H137.17Z" fill="#FFF1BE"/>
<path d="M49.64 124.56C48.12 124.56 47 123.4 47 121.96C47 120.52 48.12 119.4 49.64 119.4C51 119.4 52.16 120.52 52.16 121.96C52.16 123.4 51 124.56 49.64 124.56ZM47.48 149V127.24H51.68V149H47.48Z" fill="#FFF1BE"/>
<path d="M66.02 126.92C72.94 126.92 76.3 130.6 76.3 136.64V149H72.18L72.86 142H72.26C71.14 147.2 68.18 149.56 64.02 149.56C58.46 149.56 56.14 146.84 56.14 143.08C56.14 138.16 60.1 135.8 67.18 135.8H72.22C71.82 132.76 69.62 131.2 66.02 131.2C63.14 131.2 61.62 132.52 60.14 134.72L56.7 132.32C58.9 129.12 61.58 126.92 66.02 126.92ZM64.54 145.28C69.02 145.28 71.3 142.64 71.98 138.88H67.18C62.58 138.88 60.38 139.92 60.38 142.36C60.38 144.04 61.66 145.28 64.54 145.28Z" fill="#FFF1BE"/>
<path d="M93.53 126.68C99.29 126.68 102.45 129.88 102.45 137.76V149H98.25V137.76C98.25 133.12 96.29 130.96 92.57 130.96C88.73 130.96 85.77 133.56 85.77 139.08V149H81.49V127.24H85.77L84.69 134.04H85.49C86.41 128.44 89.17 126.68 93.53 126.68Z" fill="#FFF1BE"/>
<path d="M58.4 205C52.96 205 49.92 203.16 47.72 199.96L51 197.72C52.72 200.24 54.84 201.2 58.4 201.2C63.32 201.2 66 197.84 66.44 193.68L66.8 190.12H66C64.84 195.68 61.48 197.36 57.56 197.36C52.28 197.36 47.76 192.48 47.76 186.12C47.76 179.92 52 174.92 57.56 174.92C61.68 174.92 64.8 177.32 65.92 182.04H66.8L66.4 175.24H70.68V190.24C70.68 200.16 65.92 205 58.4 205ZM59 193.32C62.4 193.32 65.8 190.68 65.8 186.12C65.8 181.8 62.84 179.32 59 179.32C55.04 179.32 51.96 182.12 51.96 186.12C51.96 190.44 55.04 193.32 59 193.32Z" fill="#FFF1BE"/>
<path d="M75.91 197V165H80.11V197H75.91Z" fill="#FFF1BE"/>
<path d="M95.59 174.92C102.51 174.92 105.87 178.6 105.87 184.64V197H101.75L102.43 190H101.83C100.71 195.2 97.75 197.56 93.59 197.56C88.03 197.56 85.71 194.84 85.71 191.08C85.71 186.16 89.67 183.8 96.75 183.8H101.79C101.39 180.76 99.19 179.2 95.59 179.2C92.71 179.2 91.19 180.52 89.71 182.72L86.27 180.32C88.47 177.12 91.15 174.92 95.59 174.92ZM94.11 193.28C98.59 193.28 100.87 190.64 101.55 186.88H96.75C92.15 186.88 89.95 187.92 89.95 190.36C89.95 192.04 91.23 193.28 94.11 193.28Z" fill="#FFF1BE"/>
<path d="M109.85 191.44L113.77 189.4C115.05 192.04 116.89 193.36 119.77 193.36C123.21 193.36 124.85 192.36 124.85 190.88C124.85 189.44 123.93 188.64 120.29 187.88L118.93 187.6C113.09 186.4 110.89 184.28 110.89 180.8C110.89 177.76 113.53 174.88 119.29 174.88C124.25 174.88 126.89 177.24 128.57 180.8L125.01 182.72C123.53 180 121.77 179 119.29 179C116.05 179 115.05 180.08 115.05 181.2C115.05 182.48 115.85 183.2 118.93 183.96L120.29 184.28C127.01 185.68 128.85 187.8 128.85 191.08C128.85 194.12 126.01 197.48 119.77 197.48C114.77 197.48 111.97 195.44 109.85 191.44Z" fill="#FFF1BE"/>
<path d="M133.05 191.44L136.97 189.4C138.25 192.04 140.09 193.36 142.97 193.36C146.41 193.36 148.05 192.36 148.05 190.88C148.05 189.44 147.13 188.64 143.49 187.88L142.13 187.6C136.29 186.4 134.09 184.28 134.09 180.8C134.09 177.76 136.73 174.88 142.49 174.88C147.45 174.88 150.09 177.24 151.77 180.8L148.21 182.72C146.73 180 144.97 179 142.49 179C139.25 179 138.25 180.08 138.25 181.2C138.25 182.48 139.05 183.2 142.13 183.96L143.49 184.28C150.21 185.68 152.05 187.8 152.05 191.08C152.05 194.12 149.21 197.48 142.97 197.48C137.97 197.48 135.17 195.44 133.05 191.44Z" fill="#FFF1BE"/>
</g>
</g>
<defs>
<clipPath id="clip0_1_25">
<rect width="194" height="232" fill="white"/>
</clipPath>
</defs>
</svg>
