<svg width="302" height="302" viewBox="0 0 302 302" fill="none" xmlns="http://www.w3.org/2000/svg">
<g clip-path="url(#clip0_1_2)">
<path d="M975.876 -397.358H-654.988V709.497H975.876V-397.358Z" fill="white"/>
<path d="M114.085 65.3213C120.616 65.3213 123.787 68.9678 123.787 74.953V87.2007H119.899L120.54 80.2643H119.974C118.917 85.417 116.124 87.7556 112.197 87.7556C106.95 87.7556 104.76 85.0603 104.76 81.3345C104.76 76.4591 108.498 74.1206 115.18 74.1206H119.936C119.559 71.1082 117.483 69.5624 114.085 69.5624C111.367 69.5624 109.932 70.8704 108.536 73.0504L105.289 70.6722C107.365 67.5013 109.895 65.3213 114.085 65.3213ZM112.688 83.5145C116.916 83.5145 119.068 80.8985 119.71 77.1726H115.18C110.838 77.1726 108.762 78.2032 108.762 80.621C108.762 82.2857 109.97 83.5145 112.688 83.5145ZM139.927 65.2816C145.174 65.2816 149.138 70.3155 149.138 76.8159C149.138 82.7614 145.174 87.7952 139.927 87.7952C135.699 87.7952 132.792 85.5359 131.886 80.3832H131.206L131.584 87.2007H127.544V55.4913H131.584V65.6383L131.206 72.3766H131.999C133.018 67.858 135.85 65.2816 139.927 65.2816ZM138.53 83.5541C142.305 83.5541 145.174 80.7399 145.174 76.6573C145.174 72.4955 142.305 69.6813 138.53 69.6813C134.981 69.6813 132.15 72.654 132.15 76.697C132.15 80.3435 135.095 83.5541 138.53 83.5541ZM172.502 82.365C170.69 85.8134 167.518 87.7952 163.101 87.7952C157.174 87.7952 152.909 82.7614 152.909 76.4988C152.909 70.3155 157.174 65.2816 163.101 65.2816C167.632 65.2816 170.992 67.4616 172.804 71.2271L169.67 73.5261C167.971 70.6722 166.008 69.5227 163.366 69.5227C159.666 69.5227 156.986 72.337 156.986 76.4988C156.986 80.8985 159.666 83.5541 163.366 83.5541C165.895 83.5541 167.934 82.365 169.33 80.0661L172.502 82.365ZM104.76 129.255L108.46 127.234C109.668 129.85 111.405 131.158 114.123 131.158C117.369 131.158 118.917 130.167 118.917 128.7C118.917 127.273 118.049 126.481 114.613 125.728L113.33 125.45C107.818 124.261 105.742 122.16 105.742 118.712C105.742 115.699 108.233 112.846 113.67 112.846C118.351 112.846 120.842 115.184 122.428 118.712L119.068 120.614C117.671 117.919 116.01 116.928 113.67 116.928C110.612 116.928 109.668 117.998 109.668 119.108C109.668 120.377 110.423 121.09 113.33 121.843L114.613 122.16C120.956 123.548 122.692 125.648 122.692 128.898C122.692 131.911 120.012 135.24 114.123 135.24C109.404 135.24 106.761 133.219 104.76 129.255ZM129.151 110.547C127.716 110.547 126.659 109.397 126.659 107.97C126.659 106.543 127.716 105.434 129.151 105.434C130.434 105.434 131.529 106.543 131.529 107.97C131.529 109.397 130.434 110.547 129.151 110.547ZM127.112 134.765V113.202H131.076V134.765H127.112ZM148.812 112.846C154.059 112.846 158.023 117.88 158.023 124.38C158.023 130.325 154.059 135.359 148.812 135.359C144.583 135.359 141.677 133.1 140.771 127.947H140.091L140.469 134.765H136.429V103.055H140.469V113.202L140.091 119.941H140.884C141.903 115.422 144.734 112.846 148.812 112.846ZM147.415 131.118C151.19 131.118 154.059 128.304 154.059 124.221C154.059 120.059 151.19 117.245 147.415 117.245C143.866 117.245 141.035 120.218 141.035 124.261C141.035 127.908 143.979 131.118 147.415 131.118ZM165.871 125.49C166.361 128.978 168.815 131.237 172.251 131.237C174.818 131.237 177.007 130.127 178.442 127.868L181.273 129.929C179.348 133.536 175.988 135.359 172.251 135.359C166.361 135.359 161.793 130.325 161.793 124.063C161.793 117.919 166.361 112.846 172.251 112.846C178.593 112.846 182.67 118.276 182.368 125.49H165.871ZM172.251 116.928C168.891 116.928 166.475 119.267 165.908 122.517H178.48C177.951 119.029 175.459 116.928 172.251 116.928ZM189.863 119.941C190.769 114.788 193.336 113.202 197.753 113.202V117.761C193.185 117.008 190.165 119.465 190.165 124.935V134.765H186.125V113.202H190.165L189.145 119.941H189.863ZM107.252 158.111C105.817 158.111 104.76 156.961 104.76 155.534C104.76 154.107 105.817 152.998 107.252 152.998C108.536 152.998 109.63 154.107 109.63 155.534C109.63 156.961 108.536 158.111 107.252 158.111ZM105.213 182.329V160.766H109.177V182.329H105.213ZM122.712 160.449C129.243 160.449 132.414 164.096 132.414 170.081V182.329H128.526L129.168 175.392H128.601C127.544 180.545 124.751 182.884 120.825 182.884C115.577 182.884 113.388 180.188 113.388 176.463C113.388 171.587 117.125 169.249 123.807 169.249H128.564C128.186 166.236 126.11 164.69 122.712 164.69C119.994 164.69 118.559 165.998 117.163 168.178L113.916 165.8C115.992 162.629 118.522 160.449 122.712 160.449ZM121.315 178.643C125.544 178.643 127.695 176.027 128.337 172.301H123.807C119.466 172.301 117.389 173.331 117.389 175.749C117.389 177.414 118.597 178.643 121.315 178.643ZM148.677 160.211C154.113 160.211 157.095 163.382 157.095 171.191V182.329H153.131V171.191C153.131 166.593 151.282 164.453 147.771 164.453C144.146 164.453 141.353 167.029 141.353 172.499V182.329H137.313V160.766H141.353L140.334 167.505H141.089C141.957 161.955 144.562 160.211 148.677 160.211ZM115.52 237.82C110.385 237.82 107.516 235.997 105.44 232.826L108.536 230.606C110.159 233.103 112.16 234.055 115.52 234.055C120.163 234.055 122.692 230.725 123.108 226.603L123.447 223.075H122.692C121.598 228.585 118.426 230.249 114.727 230.249C109.744 230.249 105.478 225.414 105.478 219.112C105.478 212.968 109.479 208.013 114.727 208.013C118.615 208.013 121.56 210.391 122.617 215.069H123.447L123.07 208.33H127.109V223.194C127.109 233.024 122.617 237.82 115.52 237.82ZM116.086 226.246C119.295 226.246 122.504 223.63 122.504 219.112C122.504 214.831 119.71 212.373 116.086 212.373C112.348 212.373 109.442 215.148 109.442 219.112C109.442 223.392 112.348 226.246 116.086 226.246ZM132.041 229.893V198.183H136.005V229.893H132.041ZM150.62 208.013C157.151 208.013 160.322 211.66 160.322 217.645V229.893H156.434L157.075 222.956H156.509C155.452 228.109 152.658 230.448 148.732 230.448C143.485 230.448 141.295 227.752 141.295 224.027C141.295 219.151 145.033 216.813 151.715 216.813H156.471C156.094 213.8 154.018 212.254 150.62 212.254C147.902 212.254 146.467 213.562 145.07 215.742L141.824 213.364C143.9 210.193 146.429 208.013 150.62 208.013ZM149.223 226.207C153.451 226.207 155.603 223.591 156.245 219.865H151.715C147.373 219.865 145.297 220.895 145.297 223.313C145.297 224.978 146.505 226.207 149.223 226.207ZM164.079 224.383L167.779 222.362C168.987 224.978 170.723 226.286 173.442 226.286C176.688 226.286 178.236 225.295 178.236 223.828C178.236 222.401 177.368 221.609 173.932 220.856L172.649 220.578C167.137 219.389 165.061 217.288 165.061 213.84C165.061 210.827 167.552 207.974 172.989 207.974C177.67 207.974 180.161 210.312 181.747 213.84L178.387 215.742C176.99 213.047 175.329 212.056 172.989 212.056C169.931 212.056 168.987 213.126 168.987 214.236C168.987 215.505 169.742 216.218 172.649 216.971L173.932 217.288C180.275 218.676 182.011 220.776 182.011 224.027C182.011 227.039 179.331 230.368 173.442 230.368C168.723 230.368 166.08 228.347 164.079 224.383ZM185.978 224.383L189.678 222.362C190.886 224.978 192.622 226.286 195.34 226.286C198.587 226.286 200.135 225.295 200.135 223.828C200.135 222.401 199.266 221.609 195.831 220.856L194.548 220.578C189.036 219.389 186.959 217.288 186.959 213.84C186.959 210.827 189.451 207.974 194.887 207.974C199.568 207.974 202.06 210.312 203.646 213.84L200.286 215.742C198.889 213.047 197.228 212.056 194.887 212.056C191.829 212.056 190.886 213.126 190.886 214.236C190.886 215.505 191.641 216.218 194.548 216.971L195.831 217.288C202.173 218.676 203.91 220.776 203.91 224.027C203.91 227.039 201.23 230.368 195.34 230.368C190.621 230.368 187.979 228.347 185.978 224.383Z" fill="black"/>
</g>
<defs>
<clipPath id="clip0_1_2">
<rect width="302" height="302" fill="white"/>
</clipPath>
</defs>
</svg>
