<svg viewBox="107 92 44 51" fill="#19291f" xmlns="http://www.w3.org/2000/svg" id="my_logo">
    <path d="M128.819 92.889C144.101 92.889 151.521 101.009 151.521 114.336V141.609H142.422L143.924 126.163H142.599C140.126 137.637 133.589 142.844 124.402 142.844C112.123 142.844 107 136.843 107 128.546C107 117.69 115.745 112.483 131.38 112.483H142.511C141.627 105.775 136.769 102.333 128.819 102.333C122.459 102.333 119.102 105.245 115.833 110.1L108.237 104.804C113.095 97.743 119.014 92.889 128.819 92.889ZM125.55 133.4C135.444 133.4 140.479 127.575 141.981 119.279H131.38C121.222 119.279 116.364 121.573 116.364 126.957C116.364 130.664 119.19 133.4 125.55 133.4Z"/>
</svg>
