<svg width="97" height="141" viewBox="0 0 97 141" fill="none" xmlns="http://www.w3.org/2000/svg">
<g style="mix-blend-mode:color" clip-path="url(#clip0_1_2)">
<rect width="97" height="141" fill="white"/>
<path d="M666.481 -312.316H-562.752V467.389H666.481V-312.316Z" fill="white"/>
<path d="M16.9223 13.6106C21.8449 13.6106 24.235 16.1793 24.235 20.3955V29.0232H21.3042L21.7879 24.1369H21.3611C20.5644 27.7667 18.4588 29.4141 15.4995 29.4141C11.5444 29.4141 9.894 27.5154 9.894 24.8908C9.894 21.4564 12.711 19.8091 17.7474 19.8091H21.3327C21.0482 17.6871 19.4832 16.5981 16.9223 16.5981C14.8735 16.5981 13.7923 17.5195 12.7394 19.0552L10.2924 17.3799C11.8574 15.1462 13.7638 13.6106 16.9223 13.6106ZM15.8695 26.4265C19.0564 26.4265 20.6783 24.5837 21.162 21.959H17.7474C14.4752 21.959 12.9102 22.685 12.9102 24.3882C12.9102 25.5609 13.8207 26.4265 15.8695 26.4265ZM36.4 13.5826C40.3552 13.5826 43.3429 17.1286 43.3429 21.7077C43.3429 25.896 40.3552 29.442 36.4 29.442C33.2131 29.442 31.0222 27.8505 30.3393 24.2207H29.8271L30.1116 29.0232H27.067V6.68604H30.1116V13.8339L29.8271 18.5806H30.4246C31.1929 15.3975 33.327 13.5826 36.4 13.5826ZM35.3472 26.4544C38.1927 26.4544 40.3552 24.472 40.3552 21.5961C40.3552 18.6643 38.1927 16.6819 35.3472 16.6819C32.6725 16.6819 30.5384 18.776 30.5384 21.624C30.5384 24.1928 32.7579 26.4544 35.3472 26.4544ZM60.9527 25.6167C59.5869 28.0459 57.1967 29.442 53.8675 29.442C49.4002 29.442 46.1848 25.896 46.1848 21.4844C46.1848 17.1286 49.4002 13.5826 53.8675 13.5826C57.2821 13.5826 59.8145 15.1183 61.1803 17.7708L58.8186 19.3903C57.5382 17.3799 56.0585 16.5702 54.0667 16.5702C51.2782 16.5702 49.2579 18.5526 49.2579 21.4844C49.2579 24.5837 51.2782 26.4544 54.0667 26.4544C55.9732 26.4544 57.5097 25.6167 58.5625 23.9973L60.9527 25.6167ZM9.894 58.6478L12.6825 57.2238C13.5931 59.0666 14.902 59.988 16.9507 59.988C19.3978 59.988 20.5644 59.29 20.5644 58.2569C20.5644 57.2517 19.91 56.6933 17.3206 56.1628L16.3532 55.9673C12.1988 55.1297 10.6338 53.6498 10.6338 51.2207C10.6338 49.0986 12.5118 47.0883 16.6093 47.0883C20.1376 47.0883 22.0156 48.7357 23.2107 51.2207L20.6782 52.5609C19.6254 50.6622 18.3734 49.9642 16.6093 49.9642C14.3044 49.9642 13.5931 50.7181 13.5931 51.4999C13.5931 52.3934 14.1622 52.896 16.3532 53.4265L17.3206 53.6499C22.101 54.6271 23.4099 56.1069 23.4099 58.3965C23.4099 60.5185 21.3896 62.8639 16.9507 62.8639C13.3939 62.8639 11.4021 61.4399 9.894 58.6478ZM28.2777 45.4689C27.1965 45.4689 26.3997 44.6591 26.3997 43.654C26.3997 42.6488 27.1965 41.867 28.2777 41.867C29.2452 41.867 30.0703 42.6488 30.0703 43.654C30.0703 44.6591 29.2452 45.4689 28.2777 45.4689ZM26.7412 62.5288V47.3396H29.7289V62.5288H26.7412ZM43.0968 47.0883C47.052 47.0883 50.0397 50.6343 50.0397 55.2135C50.0397 59.4017 47.052 62.9476 43.0968 62.9476C39.9099 62.9476 37.7189 61.3561 37.036 57.7264H36.5238L36.8084 62.5288H33.7637V40.1917H36.8084V47.3396L36.5238 52.0862H37.1214C37.8897 48.9032 40.0237 47.0883 43.0968 47.0883ZM42.044 59.9601C44.8894 59.9601 47.052 57.9776 47.052 55.1017C47.052 52.17 44.8894 50.1876 42.044 50.1876C39.3693 50.1876 37.2352 52.2817 37.2352 55.1297C37.2352 57.6985 39.4546 59.9601 42.044 59.9601ZM55.9547 55.9952C56.3246 58.4523 58.1741 60.0438 60.7635 60.0438C62.6984 60.0438 64.3488 59.262 65.43 57.6705L67.5641 59.1224C66.1129 61.6633 63.5805 62.9476 60.7635 62.9476C56.3246 62.9476 52.8816 59.4017 52.8816 54.9901C52.8816 50.6623 56.3246 47.0883 60.7635 47.0883C65.5438 47.0883 68.6169 50.9136 68.3893 55.9952H55.9547ZM60.7635 49.9642C58.231 49.9642 56.4099 51.6116 55.9831 53.9011H65.4585C65.0601 51.4441 63.1821 49.9642 60.7635 49.9642ZM74.0382 52.0862C74.7211 48.4564 76.656 47.3396 79.9852 47.3396V50.5506C76.5422 50.0201 74.2659 51.7512 74.2659 55.6043V62.5288H71.2212V47.3396H74.2659L73.4976 52.0862H74.0382ZM11.772 78.9746C10.6907 78.9746 9.894 78.1648 9.894 77.1597C9.894 76.1545 10.6907 75.3727 11.772 75.3727C12.7395 75.3727 13.5646 76.1545 13.5646 77.1597C13.5646 78.1648 12.7395 78.9746 11.772 78.9746ZM10.2354 96.0345V80.8453H13.2232V96.0345H10.2354ZM23.4248 80.6219C28.3474 80.6219 30.7376 83.1907 30.7376 87.4068V96.0345H27.8068L28.2905 91.1483H27.8637C27.067 94.7781 24.9613 96.4254 22.0021 96.4254C18.0469 96.4254 16.3965 94.5268 16.3965 91.9022C16.3965 88.4678 19.2136 86.8205 24.25 86.8205H27.8353C27.5507 84.6984 25.9857 83.6095 23.4248 83.6095C21.3761 83.6095 20.2948 84.5309 19.242 86.0666L16.7949 84.3913C18.3599 82.1576 20.2664 80.6219 23.4248 80.6219ZM22.372 93.4379C25.5589 93.4379 27.1808 91.595 27.6645 88.9704H24.25C20.9777 88.9704 19.4127 89.6964 19.4127 91.3996C19.4127 92.5723 20.3233 93.4379 22.372 93.4379ZM42.9951 80.4544C47.0925 80.4544 49.3405 82.6881 49.3405 88.1886V96.0345H46.3527V88.1886C46.3527 84.9497 44.9585 83.442 42.3122 83.442C39.5806 83.442 37.4749 85.2569 37.4749 89.11V96.0345H34.4303V80.8453H37.4749L36.7067 85.5919H37.2757C37.9302 81.6829 39.8935 80.4544 42.9951 80.4544ZM18.0035 135.124C14.1337 135.124 11.9712 133.84 10.4062 131.606L12.7394 130.043C13.963 131.802 15.4711 132.472 18.0035 132.472C21.5034 132.472 23.4099 130.127 23.7229 127.223L23.979 124.738H23.4099C22.5847 128.619 20.1945 129.791 17.406 129.791C13.65 129.791 10.4346 126.385 10.4346 121.946C10.4346 117.618 13.4508 114.128 17.406 114.128C20.3368 114.128 22.5562 115.803 23.353 119.098H23.979L23.6944 114.351H26.739V124.821C26.739 131.746 23.353 135.124 18.0035 135.124ZM18.4303 126.971C20.849 126.971 23.2676 125.129 23.2676 121.946C23.2676 118.93 21.162 117.199 18.4303 117.199C15.6133 117.199 13.4224 119.153 13.4224 121.946C13.4224 124.961 15.6133 126.971 18.4303 126.971ZM30.4566 129.54V107.203H33.4444V129.54H30.4566ZM44.4598 114.128C49.3824 114.128 51.7726 116.696 51.7726 120.913V129.54H48.8418L49.3255 124.654H48.8987C48.1019 128.284 45.9963 129.931 43.0371 129.931C39.0819 129.931 37.4315 128.032 37.4315 125.408C37.4315 121.974 40.2485 120.326 45.2849 120.326H48.8702C48.5857 118.204 47.0207 117.115 44.4598 117.115C42.4111 117.115 41.3298 118.037 40.277 119.572L37.8299 117.897C39.3949 115.663 41.3013 114.128 44.4598 114.128ZM43.407 126.944C46.5939 126.944 48.2158 125.101 48.6995 122.476H45.2849C42.0127 122.476 40.4477 123.202 40.4477 124.905C40.4477 126.078 41.3583 126.944 43.407 126.944ZM54.6045 125.659L57.393 124.235C58.3036 126.078 59.6125 126.999 61.6612 126.999C64.1083 126.999 65.2749 126.301 65.2749 125.268C65.2749 124.263 64.6205 123.705 62.0311 123.174L61.0637 122.979C56.9093 122.141 55.3443 120.661 55.3443 118.232C55.3443 116.11 57.2223 114.1 61.3198 114.1C64.8481 114.1 66.7261 115.747 67.9212 118.232L65.3888 119.572C64.336 117.674 63.0839 116.976 61.3198 116.976C59.0149 116.976 58.3036 117.729 58.3036 118.511C58.3036 119.405 58.8727 119.907 61.0637 120.438L62.0311 120.661C66.8115 121.638 68.1204 123.118 68.1204 125.408C68.1204 127.53 66.1001 129.875 61.6612 129.875C58.1044 129.875 56.1126 128.451 54.6045 125.659ZM71.1102 125.659L73.8988 124.235C74.8093 126.078 76.1182 126.999 78.1669 126.999C80.614 126.999 81.7807 126.301 81.7807 125.268C81.7807 124.263 81.1262 123.705 78.5369 123.174L77.5694 122.979C73.4151 122.141 71.85 120.661 71.85 118.232C71.85 116.11 73.728 114.1 77.8255 114.1C81.3538 114.1 83.2319 115.747 84.4269 118.232L81.8945 119.572C80.8417 117.674 79.5897 116.976 77.8255 116.976C75.5207 116.976 74.8093 117.729 74.8093 118.511C74.8093 119.405 75.3784 119.907 77.5694 120.438L78.5369 120.661C83.3172 121.638 84.6261 123.118 84.6261 125.408C84.6261 127.53 82.6058 129.875 78.1669 129.875C74.6101 129.875 72.6183 128.451 71.1102 125.659Z" fill="#1A5623"/>
</g>
<defs>
<clipPath id="clip0_1_2">
<rect width="97" height="141" fill="white"/>
</clipPath>
</defs>
</svg>
