<svg width="170" height="300" viewBox="105 120 240 300" fill="none" xmlns="http://www.w3.org/2000/svg" id="my_logo">
<g clip-path="url(#clip0_1_2)">
<mask id="mask0_1_2" style="mask-type:luminance" maskUnits="userSpaceOnUse" x="0" y="0" width="1728" height="1117">
<path d="M1459 -285H-269V832H1459V-285Z" fill="white"/>
</mask>
<g mask="url(#mask0_1_2)">
<path d="M128.819 92.889C144.101 92.889 151.521 101.009 151.521 114.336V141.609H142.422L143.924 126.163H142.599C140.126 137.637 133.589 142.844 124.402 142.844C112.123 142.844 107 136.843 107 128.546C107 117.69 115.745 112.483 131.38 112.483H142.511C141.627 105.775 136.769 102.333 128.819 102.333C122.459 102.333 119.102 105.245 115.833 110.1L108.237 104.804C113.095 97.743 119.014 92.889 128.819 92.889ZM125.55 133.4C135.444 133.4 140.479 127.575 141.981 119.279H131.38C121.222 119.279 116.364 121.573 116.364 126.957C116.364 130.664 119.19 133.4 125.55 133.4Z" fill="#FFF1BE"/>
<path d="M189.285 92.8C201.564 92.8 210.839 104.01 210.839 118.484C210.839 131.723 201.564 142.933 189.285 142.933C179.392 142.933 172.59 137.902 170.47 126.428H168.88L169.763 141.609H160.312V71H169.763V93.595L168.88 108.599H170.735C173.12 98.537 179.745 92.8 189.285 92.8ZM186.017 133.489C194.85 133.489 201.564 127.222 201.564 118.131C201.564 108.864 194.85 102.597 186.017 102.597C177.713 102.597 171.088 109.217 171.088 118.22C171.088 126.34 177.979 133.489 186.017 133.489Z" fill="#FFF1BE"/>
<path d="M265.507 130.841C261.267 138.52 253.847 142.933 243.512 142.933C229.643 142.933 219.662 131.723 219.662 117.778C219.662 104.01 229.643 92.8 243.512 92.8C254.112 92.8 261.974 97.655 266.214 106.04L258.882 111.159C254.907 104.804 250.314 102.244 244.13 102.244C235.474 102.244 229.202 108.511 229.202 117.778C229.202 127.575 235.474 133.489 244.13 133.489C250.049 133.489 254.819 130.841 258.087 125.722L265.507 130.841Z" fill="#FFF1BE"/>
<path d="M107 235.253L115.657 230.752C118.484 236.577 122.547 239.49 128.907 239.49C136.504 239.49 140.126 237.283 140.126 234.018C140.126 230.84 138.094 229.075 130.055 227.398L127.052 226.78C114.155 224.133 109.297 219.455 109.297 211.776C109.297 205.068 115.127 198.713 127.847 198.713C138.801 198.713 144.631 203.921 148.341 211.776L140.479 216.013C137.211 210.011 133.324 207.804 127.847 207.804C120.692 207.804 118.484 210.187 118.484 212.659C118.484 215.483 120.25 217.072 127.052 218.749L130.055 219.455C144.896 222.544 148.959 227.222 148.959 234.459C148.959 241.167 142.687 248.581 128.907 248.581C117.865 248.581 111.682 244.08 107 235.253Z" fill="#FFF1BE"/>
<path d="M164.071 193.594C160.715 193.594 158.241 191.035 158.241 187.857C158.241 184.68 160.715 182.209 164.071 182.209C167.075 182.209 169.636 184.68 169.636 187.857C169.636 191.035 167.075 193.594 164.071 193.594ZM159.301 247.522V199.508H168.576V247.522H159.301Z" fill="#FFF1BE"/>
<path d="M210.075 198.713C222.354 198.713 231.629 209.923 231.629 224.397C231.629 237.637 222.354 248.846 210.075 248.846C200.182 248.846 193.38 243.815 191.26 232.341H189.67L190.553 247.522H181.101V176.913H190.553V199.508L189.67 214.512H191.525C193.91 204.45 200.535 198.713 210.075 198.713ZM206.807 239.402C215.64 239.402 222.354 233.135 222.354 224.044C222.354 214.777 215.64 208.51 206.807 208.51C198.503 208.51 191.878 215.13 191.878 224.133C191.878 232.253 198.768 239.402 206.807 239.402Z" fill="#FFF1BE"/>
<path d="M249.991 226.869C251.14 234.636 256.882 239.667 264.92 239.667C270.927 239.667 276.05 237.195 279.407 232.164L286.032 236.754C281.527 244.786 273.665 248.846 264.92 248.846C251.14 248.846 240.451 237.637 240.451 223.691C240.451 210.011 251.14 198.713 264.92 198.713C279.76 198.713 289.301 210.805 288.594 226.869H249.991ZM264.92 207.804C257.058 207.804 251.405 213.012 250.08 220.249H279.495C278.259 212.482 272.429 207.804 264.92 207.804Z" fill="#FFF1BE"/>
<path d="M306.131 214.512C308.251 203.038 314.258 199.508 324.593 199.508V209.658C313.905 207.981 306.838 213.453 306.838 225.633V247.522H297.386V199.508H306.838L304.453 214.512H306.131Z" fill="#FFF1BE"/>
<path d="M112.83 299.507C109.473 299.507 107 296.948 107 293.77C107 290.593 109.473 288.122 112.83 288.122C115.833 288.122 118.395 290.593 118.395 293.77C118.395 296.948 115.833 299.507 112.83 299.507ZM108.06 353.435V305.421H117.335V353.435H108.06Z" fill="#FFF1BE"/>
<path d="M149.005 304.715C164.287 304.715 171.707 312.835 171.707 326.162V353.435H162.608L164.11 337.989H162.785C160.312 349.463 153.775 354.67 144.588 354.67C132.309 354.67 127.186 348.669 127.186 340.372C127.186 329.516 135.931 324.309 151.566 324.309H162.697C161.813 317.601 156.955 314.159 149.005 314.159C142.645 314.159 139.288 317.071 136.019 321.926L128.423 316.63C133.281 309.569 139.199 304.715 149.005 304.715ZM145.736 345.227C155.63 345.227 160.665 339.401 162.167 331.105H151.566C141.408 331.105 136.549 333.4 136.549 338.783C136.549 342.49 139.376 345.227 145.736 345.227Z" fill="#FFF1BE"/>
<path d="M209.76 304.185C222.481 304.185 229.459 311.246 229.459 328.633V353.435H220.184V328.633C220.184 318.395 215.856 313.629 207.64 313.629C199.16 313.629 192.623 319.366 192.623 331.546V353.435H183.172V305.421H192.623L190.238 320.425H192.005C194.037 308.069 200.132 304.185 209.76 304.185Z" fill="#FFF1BE"/>
<path d="M132.175 477C120.162 477 113.448 472.94 108.59 465.879L115.833 460.937C119.632 466.497 124.314 468.615 132.175 468.615C143.041 468.615 148.959 461.201 149.931 452.022L150.726 444.167H148.959C146.397 456.435 138.977 460.142 130.32 460.142C118.66 460.142 108.678 449.374 108.678 435.341C108.678 421.66 118.042 410.628 130.32 410.628C139.419 410.628 146.309 415.923 148.782 426.338H150.726L149.842 411.334H159.294V444.432C159.294 466.32 148.782 477 132.175 477ZM133.5 451.228C141.009 451.228 148.517 445.403 148.517 435.341C148.517 425.809 141.981 420.337 133.5 420.337C124.755 420.337 117.954 426.515 117.954 435.341C117.954 444.873 124.755 451.228 133.5 451.228Z" fill="#FFF1BE"/>
<path d="M170.836 459.348V388.739H180.111V459.348H170.836Z" fill="#FFF1BE"/>
<path d="M214.307 410.628C229.589 410.628 237.009 418.748 237.009 432.075V459.348H227.911L229.412 443.902H228.087C225.614 455.376 219.077 460.583 209.89 460.583C197.612 460.583 192.488 454.582 192.488 446.285C192.488 435.429 201.233 430.222 216.869 430.222H227.999C227.116 423.514 222.257 420.072 214.307 420.072C207.947 420.072 204.59 422.984 201.322 427.839L193.725 422.543C198.583 415.482 204.502 410.628 214.307 410.628ZM211.039 451.14C220.932 451.14 225.967 445.314 227.469 437.018H216.869C206.71 437.018 201.852 439.313 201.852 444.697C201.852 448.403 204.678 451.14 211.039 451.14Z" fill="#FFF1BE"/>
<path d="M245.8 447.08L254.457 442.578C257.283 448.403 261.347 451.316 267.707 451.316C275.304 451.316 278.925 449.11 278.925 445.844C278.925 442.667 276.894 440.901 268.855 439.224L265.852 438.607C252.955 435.959 248.096 431.281 248.096 423.602C248.096 416.894 253.927 410.54 266.647 410.54C277.6 410.54 283.43 415.747 287.14 423.602L279.279 427.839C276.01 421.837 272.124 419.63 266.647 419.63C259.492 419.63 257.283 422.013 257.283 424.485C257.283 427.309 259.05 428.898 265.852 430.575L268.855 431.281C283.695 434.37 287.759 439.048 287.759 446.285C287.759 452.993 281.487 460.407 267.707 460.407C256.665 460.407 250.481 455.906 245.8 447.08Z" fill="#FFF1BE"/>
<path d="M297.041 447.08L305.698 442.578C308.524 448.403 312.588 451.316 318.948 451.316C326.545 451.316 330.166 449.11 330.166 445.844C330.166 442.667 328.135 440.901 320.096 439.224L317.093 438.607C304.196 435.959 299.338 431.281 299.338 423.602C299.338 416.894 305.168 410.54 317.888 410.54C328.841 410.54 334.672 415.747 338.382 423.602L330.52 427.839C327.251 421.837 323.365 419.63 317.888 419.63C310.733 419.63 308.524 422.013 308.524 424.485C308.524 427.309 310.291 428.898 317.093 430.575L320.096 431.281C334.937 434.37 339 439.048 339 446.285C339 452.993 332.728 460.407 318.948 460.407C307.906 460.407 301.723 455.906 297.041 447.08Z" fill="#FFF1BE"/>
</g>
</g>
<defs>
<clipPath id="clip0_1_2">
<rect width="450" height="547" fill="white"/>
</clipPath>
</defs>
</svg>
